<svg width="25" height="25" viewBox="0 0 25 25" fill="none" xmlns="http://www.w3.org/2000/svg">
<path d="M19.5382 12.6604H2.3961C2.27065 12.6604 2.15034 12.711 2.06164 12.8012C1.97293 12.8913 1.9231 13.0136 1.9231 13.1411C1.9231 13.2686 1.97293 13.3908 2.06164 13.481C2.15034 13.5711 2.27065 13.6218 2.3961 13.6218H19.5382L16.0881 17.1271C15.9993 17.2174 15.9494 17.3398 15.9494 17.4674C15.9494 17.5951 15.9993 17.7175 16.0881 17.8078C16.1769 17.898 16.2974 17.9488 16.423 17.9488C16.5486 17.9488 16.669 17.898 16.7579 17.8078L21.0149 13.4814C21.059 13.4368 21.0939 13.3837 21.1177 13.3253C21.1416 13.2669 21.1539 13.2043 21.1539 13.1411C21.1539 13.0778 21.1416 13.0152 21.1177 12.9568C21.0939 12.8984 21.059 12.8454 21.0149 12.8007L16.7579 8.47435C16.669 8.38408 16.5486 8.33337 16.423 8.33337C16.2974 8.33337 16.1769 8.38408 16.0881 8.47435C15.9993 8.56461 15.9494 8.68704 15.9494 8.81469C15.9494 8.94234 15.9993 9.06477 16.0881 9.15503L19.5382 12.6604Z" fill="white"/>
</svg>
