<svg width="21" height="20" viewBox="0 0 21 20" fill="none" xmlns="http://www.w3.org/2000/svg">
<g id="fluent:call-32-regular">
<path id="Vector" d="M5.14177 6.5725C4.90365 5.00125 6.0124 3.5875 7.70615 3.06875C8.00688 2.97671 8.3314 3.00287 8.61351 3.14189C8.89561 3.28091 9.11406 3.52232 9.22427 3.81688L9.7674 5.26688C9.85472 5.50012 9.87038 5.75414 9.81236 5.99634C9.75434 6.23854 9.6253 6.45789 9.44177 6.62626L7.82615 8.10813C7.74632 8.18122 7.68684 8.27379 7.65353 8.37678C7.62022 8.47976 7.61423 8.58963 7.63615 8.69563L7.65052 8.76063L7.69052 8.92375C7.72615 9.06125 7.7799 9.25501 7.85552 9.48626C8.00552 9.94563 8.2449 10.5631 8.60115 11.18C8.9574 11.7969 9.3724 12.3131 9.6949 12.6725C9.863 12.8595 10.0386 13.0396 10.2211 13.2125L10.2711 13.2588C10.352 13.3303 10.4499 13.3797 10.5555 13.4022C10.6611 13.4246 10.7707 13.4194 10.8736 13.3869L12.9649 12.7288C13.2025 12.6541 13.457 12.6521 13.6958 12.723C13.9345 12.7939 14.1466 12.9346 14.3049 13.1269L15.2943 14.3281C15.7068 14.8281 15.658 15.5631 15.1836 16.005C13.8874 17.2131 12.1049 17.4613 10.8649 16.4638C9.34535 15.2375 8.06407 13.7425 7.0849 12.0531C6.09853 10.3644 5.43932 8.50545 5.14177 6.5725ZM8.94552 8.7775L10.2868 7.5475C10.6538 7.21077 10.9119 6.77207 11.0279 6.28767C11.144 5.80327 11.1127 5.29524 10.938 4.82875L10.3943 3.37875C10.1724 2.78633 9.73303 2.30081 9.16561 2.02117C8.59818 1.74152 7.94547 1.6888 7.34052 1.87375C5.2374 2.51813 3.54865 4.40375 3.90615 6.75938C4.22706 8.84807 4.93887 10.8575 6.00427 12.6825C7.06039 14.5043 8.4423 16.1165 10.0811 17.4388C11.9405 18.9325 14.4243 18.4231 16.0361 16.92C16.4976 16.4903 16.7777 15.9006 16.8192 15.2714C16.8606 14.6422 16.6604 14.0209 16.2593 13.5344L15.2699 12.3331C14.9533 11.9484 14.529 11.667 14.0513 11.5252C13.5737 11.3833 13.0646 11.3874 12.5893 11.5369L10.8536 12.0831C10.7759 12.0032 10.6999 11.9218 10.6255 11.8388C10.2687 11.4442 9.9531 11.0143 9.68365 10.5556C9.42103 10.0929 9.20637 9.60451 9.04302 9.09813C9.00833 8.99214 8.97582 8.88545 8.94552 8.77813" fill="url(#paint0_linear_78_750)"/>
</g>
<defs>
<linearGradient id="paint0_linear_78_750" x1="16.8245" y1="10.0504" x2="3.85815" y2="10.0504" gradientUnits="userSpaceOnUse">
<stop offset="0.175" stop-color="#D3AC51"/>
<stop offset="0.5" stop-color="#EBD4A1"/>
<stop offset="0.795" stop-color="#D3AC51"/>
</linearGradient>
</defs>
</svg>
