<svg width="21" height="16" viewBox="0 0 21 16" fill="none" xmlns="http://www.w3.org/2000/svg">
<path d="M19.0234 5.13676C18.4844 5.13676 18.0469 5.57426 18.0469 6.11333V11.4454C18.0469 12.4532 17.2266 13.2735 16.2188 13.2735H3.78125C2.77344 13.2735 1.95312 12.4532 1.95312 11.4454V3.2188L8.57031 9.38286C8.97266 9.75395 9.48438 9.94145 10 9.94145C10.5156 9.94145 11.0273 9.75395 11.4297 9.38286L19.6914 1.68755C19.9844 1.41411 20.082 0.988327 19.9336 0.617233C19.7852 0.242233 19.4258 4.58343e-05 19.0234 4.58343e-05H0.976562C0.574219 -0.00386042 0.214844 0.242233 0.0664062 0.617233C0.0234375 0.734421 0 0.855514 0 0.972702V0.976608V11.4415C0 13.5274 1.69531 15.2227 3.78125 15.2227H16.2188C18.3047 15.2227 20 13.5274 20 11.4415V6.11333C20 5.57036 19.5625 5.13676 19.0234 5.13676ZM16.543 1.94926L10.0977 7.95317C10.043 8.00395 9.95703 8.00395 9.90234 7.95317L3.45703 1.94926H16.543Z" fill="#999999"/>
</svg>
