<svg width="22" height="22" viewBox="0 0 22 22" fill="none" xmlns="http://www.w3.org/2000/svg">
<path d="M15.3932 21C11.8871 21 8.14305 19.7117 5.21562 16.7843C2.29309 13.8618 1 10.1202 1 6.60676C1 3.51031 3.50516 1 6.60676 1C6.84637 1 7.0618 1.14586 7.15078 1.36832L9.66121 7.64437C9.78141 7.94484 9.63527 8.28582 9.33484 8.40602L6.57715 9.50906C6.77223 12.6816 9.31887 15.2281 12.4909 15.4229L13.594 12.6652C13.7139 12.3653 14.0548 12.2186 14.3557 12.3388L20.6316 14.8492C20.8541 14.9382 21 15.1536 21 15.3932C21 18.4897 18.4948 21 15.3932 21ZM6.2168 2.18867C3.97273 2.38285 2.17188 4.26465 2.17188 6.60676C2.17188 10.1383 3.54711 13.4585 6.0443 15.9557C8.54145 18.4529 11.8616 19.8281 15.3932 19.8281C17.7346 19.8281 19.617 18.0283 19.8114 15.7832L14.4645 13.6445L13.4268 16.2384C13.3379 16.4609 13.1224 16.6068 12.8828 16.6068C8.75277 16.6068 5.39324 13.2472 5.39324 9.11781C5.39324 8.87824 5.5391 8.66211 5.76156 8.57316L8.35555 7.53555L6.2168 2.18867Z" fill="#999999" stroke="#999999" stroke-width="0.5"/>
</svg>
