<svg width="21" height="20" viewBox="0 0 21 20" fill="none" xmlns="http://www.w3.org/2000/svg">
<path d="M16.375 4.09168C15.611 3.31995 14.701 2.70807 13.6981 2.29172C12.6951 1.87537 11.6193 1.66289 10.5334 1.66668C5.98337 1.66668 2.27504 5.37501 2.27504 9.92501C2.27504 11.3833 2.65837 12.8 3.37504 14.05L2.20837 18.3333L6.58337 17.1833C7.79171 17.8417 9.15004 18.1917 10.5334 18.1917C15.0834 18.1917 18.7917 14.4833 18.7917 9.93334C18.7917 7.72501 17.9334 5.65001 16.375 4.09168ZM10.5334 16.7917C9.30004 16.7917 8.09171 16.4583 7.03337 15.8333L6.78337 15.6833L4.18337 16.3667L4.87504 13.8333L4.70837 13.575C4.02316 12.4808 3.65932 11.216 3.65837 9.92501C3.65837 6.14167 6.74171 3.05834 10.525 3.05834C12.3584 3.05834 14.0834 3.77501 15.375 5.07501C16.0146 5.71165 16.5215 6.46889 16.8662 7.30286C17.2109 8.13683 17.3867 9.03093 17.3834 9.93334C17.4 13.7167 14.3167 16.7917 10.5334 16.7917ZM14.3 11.6583C14.0917 11.5583 13.075 11.0583 12.8917 10.9833C12.7 10.9167 12.5667 10.8833 12.425 11.0833C12.2834 11.2917 11.8917 11.7583 11.775 11.8917C11.6584 12.0333 11.5334 12.05 11.325 11.9417C11.1167 11.8417 10.45 11.6167 9.66671 10.9167C9.05004 10.3667 8.64171 9.69168 8.51671 9.48334C8.40004 9.27501 8.50004 9.16668 8.60837 9.05834C8.70004 8.96667 8.81671 8.81667 8.91671 8.70001C9.01671 8.58334 9.05837 8.49167 9.12504 8.35834C9.19171 8.21667 9.15837 8.10001 9.10837 8.00001C9.05837 7.90001 8.64171 6.88334 8.47504 6.46668C8.30837 6.06668 8.13337 6.11668 8.00837 6.10834H7.60837C7.46671 6.10834 7.25004 6.15834 7.05837 6.36668C6.87504 6.57501 6.34171 7.07501 6.34171 8.09168C6.34171 9.10834 7.08337 10.0917 7.18337 10.225C7.28337 10.3667 8.64171 12.45 10.7084 13.3417C11.2 13.5583 11.5834 13.6833 11.8834 13.775C12.375 13.9333 12.825 13.9083 13.1834 13.8583C13.5834 13.8 14.4084 13.3583 14.575 12.875C14.75 12.3917 14.75 11.9833 14.6917 11.8917C14.6334 11.8 14.5084 11.7583 14.3 11.6583Z" fill="url(#paint0_linear_78_752)"/>
<defs>
<linearGradient id="paint0_linear_78_752" x1="18.7917" y1="9.99998" x2="2.20837" y2="9.99998" gradientUnits="userSpaceOnUse">
<stop offset="0.175" stop-color="#D3AC51"/>
<stop offset="0.5" stop-color="#EBD4A1"/>
<stop offset="0.795" stop-color="#D3AC51"/>
</linearGradient>
</defs>
</svg>
