<svg width="25" height="25" viewBox="0 0 25 25" fill="none" xmlns="http://www.w3.org/2000/svg">
<path d="M0 25L1.72412 18.75C0.603467 16.8104 0 14.6552 0 12.4138C0 5.60347 5.60347 0 12.4569 0C19.3103 0 25 5.60347 25 12.4138C25 19.2241 19.3104 25 12.4569 25C10.3017 25 8.23276 24.3104 6.3793 23.2759L0 25Z" fill="#EDEDED"/>
<path d="M6.72422 21.0851L7.11216 21.3006C8.70698 22.292 10.5604 22.8955 12.5001 22.8955C18.1466 22.8955 22.8449 18.1972 22.8449 12.4644C22.8449 6.73164 18.1466 2.20581 12.457 2.20581C6.76733 2.20581 2.15527 6.77476 2.15527 12.4644C2.15527 14.4472 2.71563 16.3868 3.7501 18.0248L4.00874 18.4127L3.01738 22.0334L6.72422 21.0851Z" fill="#55CD6C"/>
<path d="M9.13795 6.63784L8.319 6.59473C8.06036 6.59473 7.80177 6.68096 7.62935 6.85337C7.24141 7.19819 6.59488 7.84473 6.42247 8.70683C6.12076 9.99995 6.59488 11.5517 7.71558 13.1034C8.83629 14.6551 10.9915 17.1551 14.7845 18.2327C15.9914 18.5775 16.9397 18.362 17.7156 17.8878C18.3191 17.4999 18.7069 16.8965 18.8363 16.2499L18.9656 15.6464C19.0087 15.474 18.9225 15.2585 18.7501 15.1723L16.0345 13.9223C15.8621 13.8361 15.6466 13.8792 15.5173 14.0516L14.4397 15.4309C14.3535 15.5171 14.2242 15.5602 14.0949 15.5171C13.3621 15.2585 10.9052 14.224 9.569 11.6378C9.52589 11.5085 9.52589 11.3792 9.61212 11.293L10.6466 10.1292C10.7328 9.99995 10.7759 9.82754 10.7328 9.69819L9.48282 6.89648C9.43966 6.76714 9.31036 6.63784 9.13795 6.63784Z" fill="#FEFEFE"/>
</svg>
